# xmcd CD database file
# Copyright (C) 1997 Ti Kan
#
# Track frame offsets:
#  150
#  11180
#  32335
#  49732
#  76780
#  94152
#  117425
#  139332
#  157922
#  180730
#  197645
#  224862
#  250750
#  279675
#
# Disc length: 3987 seconds
#
# Revision: 1
# Processed by: cddbd v1.4b41PL1 Copyright (c) Steve Scherf et al.
# Submitted via: CDWizzard Release:4.32
#
DISCID=c50f910e
DTITLE=Angela Hewitt - Enrique Granados - Danzas espanolas
DYEAR=1900
DGENRE=
TTITLE0=Minuetto
TTITLE1=Oriental
TTITLE2=Zarabanda
TTITLE3=Villanesca
TTITLE4=Andaluza
TTITLE5=Rondalla aragonesa
TTITLE6=Valenciana
TTITLE7=Asturiana
TTITLE8=Mazurca
TTITLE9=Danza Triste
TTITLE10=Zambra
TTITLE11=Arabesca
TTITLE12=The Maiden and the Nightingale
TTITLE13=The Straw Manikin
EXTD=
EXTT0=
EXTT1=
EXTT2=
EXTT3=
EXTT4=
EXTT5=
EXTT6=
EXTT7=
EXTT8=
EXTT9=
EXTT10=
EXTT11=
EXTT12=
EXTT13=
PLAYORDER=
